<svg xmlns="http://www.w3.org/2000/svg" viewBox="0 0 874 632" width="874" height="632">
  <defs><linearGradient id="g" gradientUnits="userSpaceOnUse" x1="69.0" y1="0" x2="805.0" y2="0"><stop offset="0" stop-color="#1e6ab5"/><stop offset="1" stop-color="#6c40a6"/></linearGradient></defs>
  <path d="M170.50 563.41 C168.85 563.18 163.95 562.51 159.62 561.92 C151.33 560.80 137.92 556.49 129.50 552.26 C102.20 538.52 83.42 512.24 75.55 476.75 C69.35 448.80 69.71 457.71 69.30 321.28 C68.88 181.28 68.33 191.91 76.11 187.94 C79.82 186.05 81.60 185.89 96.01 186.18 C111.31 186.49 111.93 186.58 114.51 189.00 C115.98 190.38 117.70 192.40 118.34 193.50 C119.19 194.97 119.65 227.54 120.06 316.50 C120.66 446.80 120.58 444.68 126.04 466.22 C131.51 487.76 143.50 504.21 159.48 512.09 C189.76 527.01 225.83 517.29 249.36 487.88 C266.85 466.01 275.69 438.25 277.98 398.00 C279.27 375.17 279.26 255.70 277.96 223.12 C276.97 198.42 277.00 197.63 279.02 193.46 C282.15 186.99 285.12 186.00 301.43 186.00 C317.39 186.00 321.31 187.11 323.44 192.21 C324.51 194.80 328.00 216.86 328.00 221.08 C328.00 221.57 333.51 216.43 340.25 209.66 C357.33 192.48 371.73 184.14 393.13 179.03 C420.62 172.46 457.58 177.74 480.43 191.50 C483.62 193.42 486.58 195.00 486.99 195.00 C487.41 195.00 488.02 193.31 488.35 191.25 C489.86 181.82 493.98 180.00 513.72 180.00 C526.59 180.01 528.91 180.26 531.69 181.95 C536.49 184.88 537.45 187.47 538.00 199.00 L538.50 209.50 L542.33 202.33 C546.71 194.13 556.18 183.74 563.50 179.10 C571.18 174.23 579.67 172.00 590.55 172.00 C619.19 172.00 639.46 190.36 651.50 227.22 L654.68 236.93 L658.43 225.52 C665.71 203.37 680.33 184.91 696.50 177.41 C704.98 173.48 712.65 172.00 724.46 172.01 C748.39 172.02 765.71 179.86 779.12 196.73 C793.17 214.41 800.26 236.71 804.18 275.50 C805.19 285.47 805.49 317.50 805.50 413.00 C805.50 554.12 806.23 542.24 797.33 546.18 C793.33 547.95 791.09 548.14 777.97 547.84 C764.81 547.54 762.82 547.27 760.32 545.41 C754.15 540.84 754.56 549.49 753.89 409.00 C753.55 338.32 752.96 278.93 752.59 277.00 C752.21 275.07 751.19 269.00 750.33 263.50 C745.69 233.97 735.58 219.59 718.53 218.27 C705.82 217.28 695.38 224.32 688.12 238.77 C681.60 251.73 678.85 262.25 675.27 288.00 C673.91 297.80 673.59 317.20 673.09 419.04 C672.54 530.88 672.39 538.76 670.74 541.27 C667.47 546.26 663.72 547.41 649.45 547.82 C634.36 548.24 629.60 547.28 625.45 542.95 L622.50 539.87 L621.93 415.68 C621.32 282.82 621.21 279.84 616.07 257.82 C609.93 231.47 598.95 218.05 583.50 218.00 C567.06 217.96 554.86 231.46 548.57 256.67 C541.79 283.85 541.78 283.95 541.11 419.50 C540.54 534.53 540.39 542.71 538.73 545.73 C535.56 551.54 532.97 552.17 513.49 551.81 L496.13 551.50 L493.16 548.65 C491.48 547.04 489.71 543.92 489.09 541.46 C488.33 538.44 488.00 501.56 488.00 420.24 C488.00 323.58 487.75 301.46 486.54 292.32 C483.73 271.01 480.51 260.90 472.73 249.00 C459.57 228.87 439.45 218.56 413.50 218.68 C378.59 218.83 350.09 238.59 337.61 271.27 C330.43 290.08 330.67 286.78 330.24 374.50 C329.97 427.76 330.28 465.88 331.17 491.50 C332.97 543.17 332.95 544.24 330.42 547.68 C326.53 553.00 322.94 554.00 307.77 554.00 C291.51 554.00 287.06 552.75 284.57 547.50 C283.59 545.45 282.19 536.46 280.96 524.38 C279.86 513.51 278.82 504.48 278.65 504.32 C278.49 504.16 277.30 505.93 276.01 508.26 C268.41 521.98 257.86 534.10 245.54 543.26 C233.14 552.48 219.17 558.68 204.33 561.55 C196.89 562.99 175.73 564.15 170.50 563.41 Z M504.28 140.09 C493.44 137.32 483.95 129.41 479.18 119.18 C476.94 114.37 476.53 112.12 476.52 104.45 C476.50 96.11 476.77 94.87 479.92 88.66 C483.76 81.09 488.45 76.37 496.21 72.29 C501.11 69.71 502.35 69.50 513.00 69.50 C523.55 69.50 524.97 69.73 530.16 72.28 C537.58 75.92 543.04 81.35 546.61 88.61 C549.21 93.91 549.50 95.50 549.50 104.50 C549.50 113.41 549.20 115.12 546.72 120.16 C540.71 132.41 528.78 140.12 515.08 140.63 C510.91 140.79 506.05 140.54 504.28 140.09 Z" fill="url(#g)" fill-rule="evenodd"/>
</svg>
